<svg width="16" height="16" viewBox="0 0 16 16" fill="none" xmlns="http://www.w3.org/2000/svg">
<path d="M5.32599 2.333C5.23877 2.4223 5.18994 2.54217 5.18994 2.667C5.18994 2.79183 5.23877 2.9117 5.32599 3.001L10.199 8L5.32599 12.998C5.23877 13.0873 5.18994 13.2072 5.18994 13.332C5.18994 13.4568 5.23877 13.5767 5.32599 13.666C5.36839 13.7095 5.41908 13.7442 5.47507 13.7678C5.53106 13.7914 5.59122 13.8036 5.65199 13.8036C5.71277 13.8036 5.77293 13.7914 5.82892 13.7678C5.88491 13.7442 5.9356 13.7095 5.97799 13.666L11.16 8.349C11.251 8.25563 11.3019 8.13039 11.3019 8C11.3019 7.86961 11.251 7.74437 11.16 7.651L5.97799 2.334C5.9356 2.29046 5.88491 2.25585 5.82892 2.23222C5.77293 2.20859 5.71277 2.19641 5.65199 2.19641C5.59122 2.19641 5.53106 2.20859 5.47507 2.23222C5.41908 2.25585 5.36839 2.29046 5.32599 2.334V2.333Z" fill="#333333"/>
</svg>
